<mxfile host="app.diagrams.net" agent="Mozilla/5.0 (Windows NT 10.0; Win64; x64) AppleWebKit/537.36 (KHTML, like Gecko) Chrome/131.0.0.0 Safari/537.36" version="24.8.6">
  <diagram name="Page-1" id="m2YkPiiGSODflqGzXosv">
    <mxGraphModel dx="1313" dy="663" grid="1" gridSize="10" guides="1" tooltips="1" connect="1" arrows="1" fold="1" page="1" pageScale="1" pageWidth="850" pageHeight="1100" math="0" shadow="0">
      <root>
        <mxCell id="0" />
        <mxCell id="1" parent="0" />
        <mxCell id="SPNfJDcxFm0yIL8-hC1j-1" value="User&lt;div&gt;&lt;br&gt;&lt;/div&gt;" style="shape=umlActor;verticalLabelPosition=bottom;verticalAlign=top;html=1;outlineConnect=0;" parent="1" vertex="1">
          <mxGeometry x="20" y="200" width="60" height="110" as="geometry" />
        </mxCell>
        <mxCell id="SPNfJDcxFm0yIL8-hC1j-3" value="Вибрати XML-file" style="ellipse;whiteSpace=wrap;html=1;" parent="1" vertex="1">
          <mxGeometry x="100" y="220" width="120" height="80" as="geometry" />
        </mxCell>
        <mxCell id="SPNfJDcxFm0yIL8-hC1j-4" value="Перевірити статус файлу" style="ellipse;whiteSpace=wrap;html=1;" parent="1" vertex="1">
          <mxGeometry x="240" y="120" width="120" height="80" as="geometry" />
        </mxCell>
        <mxCell id="SPNfJDcxFm0yIL8-hC1j-5" value="Вибрати тип аналізу" style="ellipse;whiteSpace=wrap;html=1;" parent="1" vertex="1">
          <mxGeometry x="240" y="330" width="120" height="80" as="geometry" />
        </mxCell>
        <mxCell id="SPNfJDcxFm0yIL8-hC1j-6" value="LINQ to XML" style="ellipse;whiteSpace=wrap;html=1;" parent="1" vertex="1">
          <mxGeometry x="380" y="215" width="120" height="80" as="geometry" />
        </mxCell>
        <mxCell id="SPNfJDcxFm0yIL8-hC1j-7" value="DOM API" style="ellipse;whiteSpace=wrap;html=1;" parent="1" vertex="1">
          <mxGeometry x="490" y="270" width="120" height="80" as="geometry" />
        </mxCell>
        <mxCell id="SPNfJDcxFm0yIL8-hC1j-8" value="&amp;nbsp;SAX API" style="ellipse;whiteSpace=wrap;html=1;" parent="1" vertex="1">
          <mxGeometry x="480" y="370" width="120" height="80" as="geometry" />
        </mxCell>
        <mxCell id="SPNfJDcxFm0yIL8-hC1j-9" value="&amp;lt;&amp;lt;include&amp;gt;&amp;gt;" style="endArrow=open;endSize=12;dashed=1;html=1;rounded=0;" parent="1" target="SPNfJDcxFm0yIL8-hC1j-4" edge="1" source="SPNfJDcxFm0yIL8-hC1j-3">
          <mxGeometry width="160" relative="1" as="geometry">
            <mxPoint x="280" y="260" as="sourcePoint" />
            <mxPoint x="440" y="259.57" as="targetPoint" />
          </mxGeometry>
        </mxCell>
        <mxCell id="SPNfJDcxFm0yIL8-hC1j-10" value="&amp;lt;&amp;lt;extend&amp;gt;&amp;gt;" style="endArrow=open;endSize=12;dashed=1;html=1;rounded=0;exitX=0.5;exitY=0;exitDx=0;exitDy=0;entryX=0.5;entryY=1;entryDx=0;entryDy=0;" parent="1" source="SPNfJDcxFm0yIL8-hC1j-5" edge="1" target="SPNfJDcxFm0yIL8-hC1j-4">
          <mxGeometry width="160" relative="1" as="geometry">
            <mxPoint x="340" y="299.13" as="sourcePoint" />
            <mxPoint x="450" y="310" as="targetPoint" />
          </mxGeometry>
        </mxCell>
        <mxCell id="SPNfJDcxFm0yIL8-hC1j-12" value="" style="endArrow=block;endFill=1;html=1;edgeStyle=orthogonalEdgeStyle;align=left;verticalAlign=top;rounded=0;entryX=0;entryY=0.5;entryDx=0;entryDy=0;" parent="1" target="SPNfJDcxFm0yIL8-hC1j-3" edge="1">
          <mxGeometry x="-1" relative="1" as="geometry">
            <mxPoint x="50" y="259.57" as="sourcePoint" />
            <mxPoint x="210" y="259.57" as="targetPoint" />
          </mxGeometry>
        </mxCell>
        <mxCell id="7Qyw0Tl47gCXzshduszY-1" value="" style="endArrow=block;dashed=1;endFill=0;endSize=12;html=1;rounded=0;entryX=1;entryY=1;entryDx=0;entryDy=0;exitX=0;exitY=0.5;exitDx=0;exitDy=0;" edge="1" parent="1" source="SPNfJDcxFm0yIL8-hC1j-8" target="SPNfJDcxFm0yIL8-hC1j-5">
          <mxGeometry width="160" relative="1" as="geometry">
            <mxPoint x="360" y="510" as="sourcePoint" />
            <mxPoint x="520" y="510" as="targetPoint" />
          </mxGeometry>
        </mxCell>
        <mxCell id="7Qyw0Tl47gCXzshduszY-2" value="" style="endArrow=block;dashed=1;endFill=0;endSize=12;html=1;rounded=0;entryX=1;entryY=0.5;entryDx=0;entryDy=0;" edge="1" parent="1" source="SPNfJDcxFm0yIL8-hC1j-7" target="SPNfJDcxFm0yIL8-hC1j-5">
          <mxGeometry width="160" relative="1" as="geometry">
            <mxPoint x="365" y="505" as="sourcePoint" />
            <mxPoint x="469" y="470" as="targetPoint" />
          </mxGeometry>
        </mxCell>
        <mxCell id="7Qyw0Tl47gCXzshduszY-3" value="" style="endArrow=block;dashed=1;endFill=0;endSize=12;html=1;rounded=0;exitX=0;exitY=1;exitDx=0;exitDy=0;" edge="1" parent="1" source="SPNfJDcxFm0yIL8-hC1j-6" target="SPNfJDcxFm0yIL8-hC1j-5">
          <mxGeometry width="160" relative="1" as="geometry">
            <mxPoint x="410" y="300" as="sourcePoint" />
            <mxPoint x="564" y="450" as="targetPoint" />
          </mxGeometry>
        </mxCell>
        <mxCell id="7Qyw0Tl47gCXzshduszY-4" value="Вийти із програми" style="ellipse;whiteSpace=wrap;html=1;" vertex="1" parent="1">
          <mxGeometry x="450" y="120" width="120" height="80" as="geometry" />
        </mxCell>
        <mxCell id="7Qyw0Tl47gCXzshduszY-5" value="&amp;lt;&amp;lt;extend&amp;gt;&amp;gt;" style="endArrow=open;endSize=12;dashed=1;html=1;rounded=0;exitX=0;exitY=0.5;exitDx=0;exitDy=0;entryX=1;entryY=0.5;entryDx=0;entryDy=0;" edge="1" parent="1" source="7Qyw0Tl47gCXzshduszY-4" target="SPNfJDcxFm0yIL8-hC1j-4">
          <mxGeometry width="160" relative="1" as="geometry">
            <mxPoint x="520" y="340" as="sourcePoint" />
            <mxPoint x="640" y="340.5" as="targetPoint" />
          </mxGeometry>
        </mxCell>
        <mxCell id="7Qyw0Tl47gCXzshduszY-6" value="Виконати пошук" style="ellipse;whiteSpace=wrap;html=1;" vertex="1" parent="1">
          <mxGeometry x="440" y="480" width="120" height="80" as="geometry" />
        </mxCell>
        <mxCell id="7Qyw0Tl47gCXzshduszY-7" value="Обрати фільтр" style="ellipse;whiteSpace=wrap;html=1;" vertex="1" parent="1">
          <mxGeometry x="240" y="480" width="120" height="80" as="geometry" />
        </mxCell>
        <mxCell id="7Qyw0Tl47gCXzshduszY-8" value="Очистити поля вводу" style="ellipse;whiteSpace=wrap;html=1;" vertex="1" parent="1">
          <mxGeometry x="470" y="620" width="120" height="80" as="geometry" />
        </mxCell>
        <mxCell id="7Qyw0Tl47gCXzshduszY-9" value="Конвертувати ресультати в HTML-file" style="ellipse;whiteSpace=wrap;html=1;" vertex="1" parent="1">
          <mxGeometry x="670" y="620" width="120" height="80" as="geometry" />
        </mxCell>
        <mxCell id="7Qyw0Tl47gCXzshduszY-10" value="&amp;lt;&amp;lt;extend&amp;gt;&amp;gt;" style="endArrow=open;endSize=12;dashed=1;html=1;rounded=0;exitX=0.5;exitY=0;exitDx=0;exitDy=0;entryX=0.5;entryY=1;entryDx=0;entryDy=0;" edge="1" parent="1" source="7Qyw0Tl47gCXzshduszY-7" target="SPNfJDcxFm0yIL8-hC1j-5">
          <mxGeometry width="160" relative="1" as="geometry">
            <mxPoint x="423.75" y="580" as="sourcePoint" />
            <mxPoint x="360" y="470" as="targetPoint" />
          </mxGeometry>
        </mxCell>
        <mxCell id="7Qyw0Tl47gCXzshduszY-11" value="&amp;lt;&amp;lt;extend&amp;gt;&amp;gt;" style="endArrow=open;endSize=12;dashed=1;html=1;rounded=0;exitX=0;exitY=0.5;exitDx=0;exitDy=0;entryX=1;entryY=0.5;entryDx=0;entryDy=0;" edge="1" parent="1" source="7Qyw0Tl47gCXzshduszY-6" target="7Qyw0Tl47gCXzshduszY-7">
          <mxGeometry width="160" relative="1" as="geometry">
            <mxPoint x="424" y="530" as="sourcePoint" />
            <mxPoint x="424" y="460" as="targetPoint" />
          </mxGeometry>
        </mxCell>
        <mxCell id="7Qyw0Tl47gCXzshduszY-12" value="Подивитися результати пошуку" style="ellipse;whiteSpace=wrap;html=1;" vertex="1" parent="1">
          <mxGeometry x="670" y="480" width="120" height="80" as="geometry" />
        </mxCell>
        <mxCell id="7Qyw0Tl47gCXzshduszY-13" value="&amp;lt;&amp;lt;extend&amp;gt;&amp;gt;" style="endArrow=open;endSize=12;dashed=1;html=1;rounded=0;entryX=0;entryY=0.5;entryDx=0;entryDy=0;exitX=1;exitY=0.5;exitDx=0;exitDy=0;" edge="1" parent="1" source="7Qyw0Tl47gCXzshduszY-6" target="7Qyw0Tl47gCXzshduszY-12">
          <mxGeometry width="160" relative="1" as="geometry">
            <mxPoint x="550" y="670" as="sourcePoint" />
            <mxPoint x="549.38" y="540" as="targetPoint" />
          </mxGeometry>
        </mxCell>
        <mxCell id="7Qyw0Tl47gCXzshduszY-14" value="" style="endArrow=block;dashed=1;endFill=0;endSize=12;html=1;rounded=0;entryX=0;entryY=1;entryDx=0;entryDy=0;exitX=0.583;exitY=-0.038;exitDx=0;exitDy=0;exitPerimeter=0;" edge="1" parent="1" source="7Qyw0Tl47gCXzshduszY-8" target="7Qyw0Tl47gCXzshduszY-12">
          <mxGeometry width="160" relative="1" as="geometry">
            <mxPoint x="656" y="550" as="sourcePoint" />
            <mxPoint x="520" y="593" as="targetPoint" />
          </mxGeometry>
        </mxCell>
        <mxCell id="7Qyw0Tl47gCXzshduszY-15" value="" style="endArrow=block;dashed=1;endFill=0;endSize=12;html=1;rounded=0;entryX=0.5;entryY=1;entryDx=0;entryDy=0;exitX=0.5;exitY=0;exitDx=0;exitDy=0;" edge="1" parent="1" source="7Qyw0Tl47gCXzshduszY-9" target="7Qyw0Tl47gCXzshduszY-12">
          <mxGeometry width="160" relative="1" as="geometry">
            <mxPoint x="726" y="577" as="sourcePoint" />
            <mxPoint x="590" y="620" as="targetPoint" />
          </mxGeometry>
        </mxCell>
      </root>
    </mxGraphModel>
  </diagram>
</mxfile>
